<svg width="31" height="13" viewBox="0 0 31 13" fill="none" xmlns="http://www.w3.org/2000/svg">
<path d="M4.50781 12.1719C2.36719 12.1719 0.851562 10.3438 0.851562 7.75C0.851562 5.17188 2.46094 3.40625 4.55469 3.40625C5.92969 3.40625 6.94531 4.1875 7.41406 5.40625H7.46094L7.85156 3.51562H9.61719L8.71094 7.75L9.72656 12H7.94531L7.50781 10.0625H7.44531C6.99219 11.2656 6.03906 12.1875 4.50781 12.1719ZM3.10156 7.73438C3.10156 9.21875 3.80469 10.2969 4.83594 10.2969C6.03906 10.2969 6.74219 8.84375 6.96094 7.78125L6.97656 7.75L6.96094 7.73438C6.74219 6.625 6.19531 5.25 4.91406 5.25C3.78906 5.25 3.10156 6.28125 3.10156 7.73438ZM19.1641 7.32812C19.1641 10.625 17.6172 12.1562 15.3359 12.1562C13.0234 12.1562 11.4453 10.625 11.4453 7.32812V5.40625C11.4453 2.125 13.0234 0.578125 15.3047 0.578125C17.5859 0.578125 19.1641 2.125 19.1641 5.40625V7.32812ZM16.9141 5.0625C16.9141 3.1875 16.2891 2.4375 15.3047 2.4375C14.2578 2.4375 13.6953 3.28125 13.6953 5.0625V5.48438H16.9141V5.0625ZM13.6953 7.60938C13.6953 9.45312 14.2734 10.2812 15.3359 10.2812C16.2891 10.2812 16.9141 9.5625 16.9141 7.60938V7.23438H13.6953V7.60938ZM30.6484 3.51562V5.23438H29.2734V9.35938C29.2734 10.0469 29.5859 10.2188 30.1797 10.2188C30.4297 10.2188 30.6797 10.1875 30.8359 10.1719V11.8906C30.4609 12 29.9922 12.0938 29.4453 12.0938C27.9766 12.0938 27.0547 11.3906 27.0391 9.64062V5.23438H24.8359V12H22.5859V5.23438H21.2266V3.51562H30.6484Z" fill="#3B3E43"/>
</svg>
