<svg width="28" height="13" viewBox="0 0 28 13" fill="none" xmlns="http://www.w3.org/2000/svg">
<path d="M0.640625 9.625C0.640625 7.73438 2.17188 7.10938 3.79688 7.01562C4.40625 6.97656 5.54688 6.92188 5.90625 6.90625V6.21875C5.89062 5.51562 5.40625 5.09375 4.54688 5.09375C3.76562 5.09375 3.26562 5.45312 3.14062 6.03125H0.9375C1.07812 4.5625 2.35938 3.40625 4.60938 3.40625C6.45312 3.40625 8.20312 4.23438 8.20312 6.28125V12H6.01562V10.8281H5.95312C5.53125 11.6094 4.73438 12.1562 3.46875 12.1562C1.84375 12.1562 0.640625 11.3125 0.640625 9.625ZM2.85938 9.5625C2.85938 10.2188 3.39062 10.5625 4.125 10.5625C5.17188 10.5625 5.92188 9.85938 5.90625 8.96875V8.34375C5.55469 8.35938 4.57031 8.41406 4.17188 8.45312C3.375 8.53125 2.85938 8.90625 2.85938 9.5625ZM10.0156 12V0.6875H12.3281V4.9375H12.3906C12.7188 4.25 13.3906 3.40625 14.8125 3.40625C16.6875 3.40625 18.2656 4.85938 18.2656 7.76562C18.2656 10.5938 16.75 12.1406 14.8125 12.1406C13.4219 12.1406 12.7188 11.3438 12.3906 10.6406H12.2969V12H10.0156ZM12.2812 7.75C12.2812 9.28125 12.9375 10.2969 14.0781 10.2969C15.2656 10.2969 15.8906 9.25 15.8906 7.75C15.8906 6.26562 15.2656 5.25 14.0781 5.25C12.9219 5.25 12.2812 6.21875 12.2812 7.75ZM23.5625 12.1719C20.9688 12.1719 19.4062 10.375 19.4062 7.78125C19.4062 5.1875 20.9844 3.40625 23.5625 3.40625C25.75 3.40625 27.2344 4.6875 27.3281 6.625H25.1562C25.0156 5.78125 24.4688 5.20312 23.5938 5.20312C22.4844 5.20312 21.75 6.14062 21.75 7.75C21.75 9.39062 22.4688 10.3281 23.5938 10.3281C24.4062 10.3281 25.0156 9.82812 25.1562 8.92188H27.3281C27.2188 10.8438 25.8125 12.1719 23.5625 12.1719Z" fill="#3B3E43"/>
</svg>
