<svg width="35" height="13" viewBox="0 0 35 13" fill="none" xmlns="http://www.w3.org/2000/svg">
<path d="M5.85156 6.03125C5.75781 5.4375 5.22656 5.04688 4.46094 5.04688C3.71094 5.04688 3.13281 5.40625 3.14844 5.92188C3.13281 6.29688 3.44531 6.59375 4.24219 6.76562L5.75781 7.07812C7.39844 7.42188 8.19531 8.15625 8.21094 9.375C8.19531 11.0469 6.69531 12.1719 4.44531 12.1719C2.14844 12.1719 0.804688 11.1406 0.617188 9.48438H2.94531C3.05469 10.1562 3.60156 10.5 4.44531 10.5C5.28906 10.5 5.85156 10.1562 5.85156 9.60938C5.85156 9.17188 5.49219 8.90625 4.69531 8.73438L3.28906 8.45312C1.67969 8.14062 0.835938 7.29688 0.851562 6.04688C0.835938 4.42188 2.24219 3.40625 4.42969 3.40625C6.57031 3.40625 7.89844 4.42188 8.02344 6.03125H5.85156ZM9.63281 12V3.51562H11.9453V12H9.63281ZM10.7891 2.40625C10.0859 2.40625 9.52344 1.875 9.52344 1.23438C9.52344 0.578125 10.0859 0.046875 10.7891 0.046875C11.4766 0.046875 12.0391 0.578125 12.0391 1.23438C12.0391 1.875 11.4766 2.40625 10.7891 2.40625ZM16.0547 7.09375V12H13.7422V3.51562H15.9453V5H16.0391C16.4297 4.01562 17.3359 3.40625 18.5859 3.40625C20.3516 3.40625 21.5234 4.60938 21.5078 6.59375V12H19.2109V7C19.2109 5.95312 18.6328 5.32812 17.6797 5.32812C16.7109 5.32812 16.0547 5.96875 16.0547 7.09375ZM28.9141 3.51562L30.4922 6.5L32.1016 3.51562H34.4922L32.0078 7.75L34.5547 12H32.1797L30.4922 9.04688L28.8359 12H26.4297L28.9609 7.75L26.5234 3.51562H28.9141Z" fill="#3B3E43"/>
</svg>
