<svg width="26" height="13" viewBox="0 0 26 13" fill="none" xmlns="http://www.w3.org/2000/svg">
<path d="M5.02344 12H2.66406V2.92188H2.60156L0.0078125 4.54688V2.46875L2.80469 0.6875H5.02344V12ZM7.63281 10.2969L11.6953 6.5625C12.0964 6.17708 12.4062 5.85938 12.625 5.60938C12.849 5.35417 13.0208 5.10156 13.1406 4.85156C13.2604 4.59635 13.3203 4.32292 13.3203 4.03125C13.3203 3.70312 13.2422 3.41667 13.0859 3.17188C12.9349 2.92188 12.7214 2.73177 12.4453 2.60156C12.1745 2.47135 11.8672 2.40625 11.5234 2.40625C10.987 2.40104 10.5599 2.55729 10.2422 2.875C9.92448 3.1875 9.76823 3.61458 9.77344 4.15625H7.53906C7.53906 3.43229 7.70573 2.79688 8.03906 2.25C8.3776 1.69792 8.84896 1.27344 9.45312 0.976562C10.0625 0.679688 10.763 0.53125 11.5547 0.53125C12.3516 0.53125 13.0547 0.674479 13.6641 0.960938C14.2734 1.24219 14.7448 1.63542 15.0781 2.14062C15.4167 2.64583 15.5859 3.22396 15.5859 3.875C15.5859 4.32292 15.5 4.7526 15.3281 5.16406C15.1562 5.57031 14.8568 6.02344 14.4297 6.52344C14.0078 7.02344 13.4089 7.625 12.6328 8.32812L10.9141 10V10.0625H15.7422V12H7.64844L7.63281 10.2969ZM21.6016 12.1562C20.7839 12.1562 20.0495 12.0156 19.3984 11.7344C18.7526 11.4531 18.2422 11.0599 17.8672 10.5547C17.4974 10.0443 17.3047 9.46354 17.2891 8.8125H19.6641C19.6745 9.08854 19.7656 9.33333 19.9375 9.54688C20.1094 9.75521 20.3411 9.91927 20.6328 10.0391C20.9245 10.1589 21.2526 10.2188 21.6172 10.2188C21.987 10.2188 22.3177 10.1536 22.6094 10.0234C22.9062 9.88802 23.1354 9.70573 23.2969 9.47656C23.4583 9.24219 23.5391 8.97396 23.5391 8.67188C23.5391 8.36458 23.4531 8.09375 23.2812 7.85938C23.1094 7.61979 22.862 7.43229 22.5391 7.29688C22.2161 7.16146 21.8359 7.09375 21.3984 7.09375H20.3516V5.35938H21.3984C21.7682 5.35938 22.0964 5.29688 22.3828 5.17188C22.6693 5.04688 22.8906 4.86979 23.0469 4.64062C23.2083 4.41146 23.2891 4.15104 23.2891 3.85938C23.2891 3.57292 23.2214 3.32031 23.0859 3.10156C22.9505 2.88281 22.7578 2.71354 22.5078 2.59375C22.263 2.46875 21.9766 2.40625 21.6484 2.40625C21.3151 2.40625 21.0078 2.46615 20.7266 2.58594C20.4453 2.70052 20.2188 2.86458 20.0469 3.07812C19.875 3.29167 19.7839 3.54167 19.7734 3.82812H17.5234C17.5339 3.19271 17.7188 2.625 18.0781 2.125C18.4427 1.61979 18.9349 1.22917 19.5547 0.953125C20.1745 0.671875 20.8672 0.53125 21.6328 0.53125C22.4036 0.53125 23.0859 0.671875 23.6797 0.953125C24.2786 1.23438 24.7396 1.61719 25.0625 2.10156C25.3906 2.58594 25.5547 3.125 25.5547 3.71875C25.5547 4.13021 25.4661 4.50521 25.2891 4.84375C25.112 5.17708 24.8594 5.45312 24.5312 5.67188C24.2083 5.88542 23.8359 6.03125 23.4141 6.10938V6.20312C24.237 6.30208 24.8724 6.58594 25.3203 7.05469C25.7682 7.52344 25.987 8.11458 25.9766 8.82812C25.9818 9.46354 25.7969 10.0365 25.4219 10.5469C25.0521 11.0521 24.5339 11.4479 23.8672 11.7344C23.2005 12.0156 22.4453 12.1562 21.6016 12.1562Z" fill="#3B3E43"/>
</svg>
