<svg width="33" height="13" viewBox="0 0 33 13" fill="none" xmlns="http://www.w3.org/2000/svg">
<path d="M3.21875 12H0.6875L4.60938 0.6875H7.625L11.5312 12H9.01562L8.17188 9.39062H4.07812L3.21875 12ZM4.67188 7.5625H7.57812L6.15625 3.23438H6.07812L4.67188 7.5625ZM12.8125 12V0.6875H17.3125C19.8125 0.6875 21.0625 1.89062 21.0625 3.59375C21.0625 4.92188 20.2031 5.75 19.0312 6.01562V6.125C20.3125 6.1875 21.5156 7.20312 21.5156 8.875C21.5156 10.6719 20.1719 12 17.6094 12H12.8125ZM17.1406 10.0625C18.5 10.0625 19.0781 9.5 19.0781 8.65625C19.0781 7.70312 18.3594 7.03125 17.2031 7.03125H15.1562V10.0625H17.1406ZM16.9688 5.42188C17.9531 5.42188 18.6875 4.875 18.6875 3.96875C18.6875 3.15625 18.0938 2.59375 17.0156 2.59375H15.1562V5.42188H16.9688ZM30.5625 4.625C30.375 3.375 29.4062 2.60938 28.0938 2.60938C26.3281 2.60938 25.1719 3.96875 25.1719 6.34375C25.1719 8.78125 26.3438 10.0781 28.0781 10.0781C29.375 10.0781 30.3281 9.35938 30.5625 8.14062L32.9375 8.15625C32.6719 10.25 30.9219 12.1562 28.0469 12.1562C25.0156 12.1562 22.7812 10.0312 22.7812 6.34375C22.7812 2.65625 25.0625 0.53125 28.0469 0.53125C30.6562 0.53125 32.625 2.03125 32.9375 4.625H30.5625Z" fill="#3B3E43"/>
</svg>
